<svg width="32" height="33" viewBox="0 0 32 33" fill="none" xmlns="http://www.w3.org/2000/svg">
<path d="M4.80005 3.63789V30.0379C4.80005 30.2501 4.88433 30.4535 5.03436 30.6036C5.18439 30.7536 5.38788 30.8379 5.60005 30.8379H26.4C26.6122 30.8379 26.8157 30.7536 26.9657 30.6036C27.1158 30.4535 27.2 30.2501 27.2 30.0379V3.63789C27.2 3.42572 27.1158 3.22223 26.9657 3.07221C26.8157 2.92218 26.6122 2.83789 26.4 2.83789H5.60005C5.38788 2.83789 5.18439 2.92218 5.03436 3.07221C4.88433 3.22223 4.80005 3.42572 4.80005 3.63789ZM6.40005 4.43789H25.6V29.2379H6.40005V4.43789Z" fill="#EDEDED"/>
<path d="M13.1076 13.2379C13.9752 13.2379 14.8096 12.8599 15.3972 12.2007C15.4699 12.1227 15.5262 12.031 15.563 11.931C15.5997 11.8309 15.6161 11.7246 15.6112 11.6181C15.6062 11.5116 15.5801 11.4072 15.5342 11.311C15.4884 11.2148 15.4237 11.1287 15.3442 11.0578C15.2646 10.9869 15.1716 10.9326 15.0708 10.8982C14.9699 10.8637 14.8632 10.8497 14.7569 10.8571C14.6505 10.8644 14.5468 10.8929 14.4516 10.9409C14.3564 10.989 14.2719 11.0555 14.2028 11.1367C13.9148 11.4599 13.5256 11.6379 13.1076 11.6379C12.2764 11.6379 11.6 10.9203 11.6 10.0379C11.6 9.15548 12.276 8.43788 13.1076 8.43788C13.5256 8.43788 13.9144 8.61588 14.2028 8.93948C14.3448 9.0946 14.5422 9.18756 14.7522 9.19823C14.9623 9.2089 15.1681 9.13644 15.3251 8.99651C15.4821 8.85659 15.5777 8.66047 15.5912 8.45059C15.6047 8.24071 15.535 8.03396 15.3972 7.87508C14.8096 7.21588 13.9752 6.83788 13.108 6.83788C11.394 6.83788 9.99998 8.27348 9.99998 10.0379C9.99998 11.8023 11.394 13.2379 13.1076 13.2379ZM18.4616 12.7455C18.5223 12.8912 18.6249 13.0157 18.7563 13.1033C18.8877 13.1909 19.0421 13.2376 19.2 13.2376C19.3579 13.2376 19.5123 13.1909 19.6437 13.1033C19.7751 13.0157 19.8776 12.8912 19.9384 12.7455L21.9384 7.94548C21.9807 7.84819 22.0032 7.74346 22.0046 7.63739C22.006 7.53132 21.9863 7.42602 21.9467 7.32763C21.907 7.22924 21.8482 7.13972 21.7736 7.06427C21.699 6.98883 21.6102 6.92897 21.5123 6.88817C21.4144 6.84738 21.3093 6.82647 21.2032 6.82666C21.0971 6.82685 20.9922 6.84814 20.8944 6.88928C20.7966 6.93042 20.708 6.99059 20.6337 7.0663C20.5594 7.14201 20.5009 7.23175 20.4616 7.33028L19.2 10.3579L17.9384 7.33028C17.8991 7.23175 17.8406 7.14201 17.7663 7.0663C17.692 6.99059 17.6033 6.93042 17.5056 6.88928C17.4078 6.84814 17.3028 6.82685 17.1967 6.82666C17.0906 6.82647 16.9856 6.84738 16.8877 6.88817C16.7897 6.92897 16.7009 6.98883 16.6263 7.06427C16.5518 7.13972 16.4929 7.22924 16.4533 7.32763C16.4136 7.42602 16.394 7.53132 16.3954 7.63739C16.3968 7.74346 16.4193 7.84819 16.4616 7.94548L18.4616 12.7455ZM23.6 16.4379H8.39998C8.1878 16.4379 7.98432 16.5222 7.83429 16.6722C7.68426 16.8222 7.59998 17.0257 7.59998 17.2379C7.59998 17.4501 7.68426 17.6535 7.83429 17.8036C7.98432 17.9536 8.1878 18.0379 8.39998 18.0379H23.6C23.8121 18.0379 24.0156 17.9536 24.1657 17.8036C24.3157 17.6535 24.4 17.4501 24.4 17.2379C24.4 17.0257 24.3157 16.8222 24.1657 16.6722C24.0156 16.5222 23.8121 16.4379 23.6 16.4379ZM23.6 20.8379H8.39998C8.1878 20.8379 7.98432 20.9222 7.83429 21.0722C7.68426 21.2222 7.59998 21.4257 7.59998 21.6379C7.59998 21.8501 7.68426 22.0535 7.83429 22.2036C7.98432 22.3536 8.1878 22.4379 8.39998 22.4379H23.6C23.8121 22.4379 24.0156 22.3536 24.1657 22.2036C24.3157 22.0535 24.4 21.8501 24.4 21.6379C24.4 21.4257 24.3157 21.2222 24.1657 21.0722C24.0156 20.9222 23.8121 20.8379 23.6 20.8379ZM23.6 25.2379H8.39998C8.1878 25.2379 7.98432 25.3222 7.83429 25.4722C7.68426 25.6222 7.59998 25.8257 7.59998 26.0379C7.59998 26.2501 7.68426 26.4535 7.83429 26.6036C7.98432 26.7536 8.1878 26.8379 8.39998 26.8379H23.6C23.8121 26.8379 24.0156 26.7536 24.1657 26.6036C24.3157 26.4535 24.4 26.2501 24.4 26.0379C24.4 25.8257 24.3157 25.6222 24.1657 25.4722C24.0156 25.3222 23.8121 25.2379 23.6 25.2379Z" fill="#EDEDED"/>
</svg>
