<svg width="32" height="33" viewBox="0 0 32 33" fill="none" xmlns="http://www.w3.org/2000/svg">
<path d="M15.998 0.837891C7.16401 0.837891 9.23295e-06 8.18279 9.23295e-06 17.2434C-0.00360001 20.6821 1.05104 24.035 3.01487 26.8282C4.97871 29.6214 7.75242 31.7137 10.944 32.8094C11.744 32.9606 12.036 32.454 12.036 32.019C12.036 31.6289 12.022 30.5974 12.014 29.2289C7.56401 30.2195 6.62401 27.0291 6.62401 27.0291C5.89801 25.1337 4.84801 24.6291 4.84801 24.6291C3.39401 23.612 4.95601 23.6324 4.95601 23.6324C6.56201 23.7488 7.40601 25.3236 7.40601 25.3236C8.83401 27.8298 11.152 27.1067 12.064 26.686C12.208 25.6259 12.622 24.9028 13.08 24.4923C9.52801 24.0777 5.79201 22.6704 5.79201 16.3855C5.79201 14.5943 6.41601 13.1298 7.44001 11.9819C7.27401 11.5672 6.72601 9.8985 7.59601 7.64152C7.59601 7.64152 8.94001 7.20034 11.996 9.32251C13.3015 8.95815 14.6486 8.7727 16.002 8.77103C17.3554 8.77378 18.7025 8.95991 20.008 9.32456C23.062 7.20238 24.404 7.64356 24.404 7.64356C25.276 9.90259 24.728 11.5693 24.564 11.9839C25.59 13.1318 26.208 14.5963 26.208 16.3876C26.208 22.6888 22.468 24.0756 18.904 24.4821C19.478 24.9886 19.99 25.9895 19.99 27.5193C19.99 29.713 19.97 31.4818 19.97 32.019C19.97 32.4581 20.258 32.9688 21.07 32.8074C24.2585 31.7091 27.0288 29.616 28.9899 26.8234C30.951 24.0309 32.0039 20.6799 32 17.2434C32 8.18279 24.836 0.837891 15.998 0.837891Z" fill="#EDEDED"/>
</svg>
