<svg width="32" height="33" viewBox="0 0 32 33" fill="none" xmlns="http://www.w3.org/2000/svg">
<g clip-path="url(#clip0_12_113)">
<path d="M29 4.83789H3C2.20435 4.83789 1.44129 5.15396 0.87868 5.71657C0.31607 6.27918 0 7.04224 0 7.83789L0 25.8379C0 26.6335 0.31607 27.3966 0.87868 27.9592C1.44129 28.5218 2.20435 28.8379 3 28.8379H29C29.7956 28.8379 30.5587 28.5218 31.1213 27.9592C31.6839 27.3966 32 26.6335 32 25.8379V7.83789C32 7.04224 31.6839 6.27918 31.1213 5.71657C30.5587 5.15396 29.7956 4.83789 29 4.83789ZM25.468 6.83789L16 14.3139L6.532 6.83789H25.468ZM4 26.8379V10.1299L16 19.3599L28 10.1279V26.8379H4Z" fill="#EDEDED"/>
</g>
<defs>
<clipPath id="clip0_12_113">
<rect width="32" height="32" fill="white" transform="translate(0 0.837891)"/>
</clipPath>
</defs>
</svg>
