<svg width="1767" height="2004" viewBox="0 0 1767 2004" fill="none" xmlns="http://www.w3.org/2000/svg">
<path d="M1766.77 0.0693359L1605.82 1803.12L882.346 2003.68L160.864 1803.39L0.081543 0.0693359H1766.77Z" fill="#E44D26"/>
<path d="M883.427 1850.37L1468.03 1688.3L1605.57 147.514H883.427V1850.37Z" fill="#F16529"/>
<path d="M570.545 589.862H883.426V368.691H328.835L334.126 428.026L388.489 1037.51H883.426V816.343H590.76L570.545 589.862ZM620.393 1148.1H398.371L429.354 1495.37L882.408 1621.14L883.426 1620.86V1390.75L882.457 1391L636.141 1324.49L620.393 1148.1Z" fill="#EBEBEB"/>
<path d="M882.665 1037.51H1155.01L1129.33 1324.36L882.658 1390.93V1621.03L1336.07 1495.37L1339.4 1458.01L1391.38 875.734L1396.77 816.343H882.665V1037.51ZM882.665 589.321V589.862H1416.9L1421.33 540.152L1431.41 428.026L1436.7 368.691H882.665V589.321Z" fill="white"/>
</svg>
