<svg width="29" height="33" viewBox="0 0 29 33" fill="none" xmlns="http://www.w3.org/2000/svg">
<path d="M28.433 0.126465H0.159912L2.81044 28.8692L14.295 32.1265L25.7796 28.8692L28.433 0.126465Z" fill="#E6A329"/>
<path d="M14.2949 2.46826V29.6908L23.6 27.0547L25.8637 2.46826H14.2949Z" fill="#F1BF22"/>
<path d="M21.6977 5.99438H7.39056L6.39404 16.7549L6.41456 16.6879H18.5692L18.1733 21.2408L14.2953 22.3564L10.3599 21.2228L10.1242 18.4672H6.55203L7.06162 23.9734L14.2953 26.0269L21.5321 23.9734L22.5286 13.1654H9.62902L9.79457 9.56441H18.7445L18.8784 11.6276H22.4808L21.6977 5.99438Z" fill="white"/>
<path d="M14.2981 5.99438H7.39056L6.39404 16.7549L6.41456 16.6879H14.2978V13.1776H10.1321L10.2977 9.57665H14.2981V5.99438ZM10.1321 18.469H6.55167L7.06126 23.9723L14.2949 26.0236V22.3615L10.3596 21.225L10.1321 18.469Z" fill="#EBEBEB"/>
</svg>
