<svg width="120" height="121" viewBox="0 0 120 121" fill="none" xmlns="http://www.w3.org/2000/svg">
<path d="M27.9 40.5664C27.9 40.5664 37.83 24.3364 58.14 24.3364C78.45 24.3364 87.93 40.0864 87.93 40.0864H115.5L114.42 46.8664C114.42 46.8664 113.61 49.5664 112.38 49.8364H114.27C114.27 49.8364 114.9 52.2064 111.12 60.3964H119.16C119.16 60.3964 119.49 74.7364 102.15 81.5164C102.15 81.5164 93.18 84.3664 88.59 79.4764C88.59 79.4764 79.47 96.4864 58.2 96.4864C36.93 96.4864 27.27 78.9964 27.27 78.9964H2.52002L6.45002 71.9164H3.78002L6.93002 66.0964H12.3L13.26 63.8764H10.74L16.89 52.5364H20.34L21.75 49.0864H18.75L23.34 40.5664H27.9Z" fill="white"/>
<path d="M58.4399 92.7065C75.8399 92.7065 89.9399 78.3965 89.9399 60.7265C89.9399 43.0565 75.8399 28.7465 58.4399 28.7465C41.0399 28.7465 26.9399 43.0565 26.9399 60.7265C26.9399 78.3965 41.0399 92.7065 58.4399 92.7065Z" fill="#FAB624"/>
<path d="M83.1899 40.0565C82.7999 39.6065 82.2299 38.6465 78.3599 35.2565C72.6599 30.3065 65.1299 28.0265 58.0199 28.0265C52.7999 28.0265 48.2099 29.1965 43.1699 31.9865C36.6899 35.5265 34.0499 39.6365 33.3899 40.4765C32.9099 41.1065 32.8199 41.4365 33.1499 41.6165C33.3899 41.7365 33.8099 41.2565 34.1999 40.7165C36.1199 38.1665 38.6399 35.6765 41.2799 34.1765C42.1199 34.2965 43.2599 35.4365 43.7099 36.0665C41.9999 36.9965 39.1799 39.1265 38.1299 39.9665C37.1999 40.6865 36.8999 41.0765 37.1399 41.3765C37.3499 41.6165 38.0699 41.1365 38.6399 40.6565C39.6599 39.8165 42.6899 37.6865 44.1899 36.8765C45.2099 38.0465 44.8799 40.2665 44.5199 40.7765C44.3099 41.0465 44.3099 41.3165 44.5199 41.4365C44.7299 41.5565 44.9699 41.2565 45.2699 40.8065C45.9899 39.8165 45.6899 37.3565 45.0899 36.4865C46.9199 35.3765 49.5599 34.5965 51.1499 34.2365C51.2999 34.5065 53.2199 40.1465 53.5799 41.1365C53.7899 41.7065 53.9999 42.3665 54.3899 42.2165C54.6599 42.1265 54.4799 41.4965 54.2399 40.8965C53.9399 40.1165 52.4999 35.4065 52.0499 33.9965C52.5899 33.6965 55.7399 33.0665 56.5499 33.0965C56.1599 35.1665 57.5999 36.0065 59.2799 37.0865C60.1799 37.6565 65.7299 40.8665 66.8999 41.5865C67.5599 42.0065 68.0699 42.2765 68.2199 42.0665C68.3699 41.8265 67.9199 41.3765 67.2899 41.0465C66.7799 40.7465 61.6199 37.7465 59.4599 36.3665C57.8999 35.4065 57.0599 34.3265 57.4499 32.9765C57.9599 32.8265 59.5199 32.8265 61.1399 32.8265C72.1799 32.9165 81.0599 39.2765 82.0499 40.2665C82.5599 40.7765 83.2499 41.2265 83.5199 41.0165C83.7299 40.9265 83.4299 40.3265 83.1899 40.0565ZM44.6399 35.6765C44.3399 35.1665 42.9299 33.9065 42.1799 33.6365C43.9499 32.3465 48.0599 30.4565 49.6199 30.1265C49.8899 30.5765 50.6099 32.4965 50.8499 33.2765C49.4999 33.5765 45.8399 34.9265 44.6399 35.6765ZM56.7299 32.1365C55.2899 32.2265 52.6799 32.7965 51.7499 33.0665C51.5099 32.4365 50.8499 30.4865 50.6399 29.8865C53.3099 29.1365 56.3699 28.8965 58.7699 29.0765C58.0799 29.5565 56.9699 31.5365 56.7299 32.1365ZM63.8999 32.0465C61.4999 31.8665 59.5499 31.8065 57.8399 31.9865C58.3499 30.7565 59.3099 29.5565 60.0899 29.0765C61.7099 29.1365 63.3899 29.3765 64.7699 29.6465C69.0599 30.5165 75.6899 33.0965 78.5699 36.9365C74.7299 34.3565 68.3699 32.3465 63.8999 32.0465Z" fill="#0B1A23"/>
<path d="M85.59 77.9165C86.01 77.1665 86.34 76.7465 85.98 76.5365C85.65 76.3565 85.35 77.0765 84.96 77.7065C83.67 79.9565 82.26 81.8165 79.08 84.6965C75.57 87.9065 71.49 89.7665 70.08 90.2465C68.88 86.8865 64.29 72.4865 64.1699 72.0665C63.9899 71.4365 63.84 71.2565 63.63 71.3465C63.39 71.4365 63.54 71.7665 63.66 72.3065C63.7799 72.8465 69.2399 89.8565 69.4199 90.4865C68.34 91.0265 63.9599 92.2565 60.8699 92.3465C58.1099 92.4365 54.93 92.3465 53.3099 91.9565C51.42 90.4265 47.07 84.3065 45.45 81.0665C43.5 77.2265 42.24 73.7165 41.91 72.2165C41.7599 71.4965 41.55 70.9865 41.19 71.0765C40.8 71.1665 41.01 71.7365 41.25 72.4865C41.85 74.4665 42.78 77.2565 44.79 81.2465C46.92 85.4765 50.73 90.3965 51.84 91.7765C48.36 91.0265 44.13 89.4065 40.11 86.4365C36.66 83.8565 33.66 80.5565 32.16 78.1565C31.89 77.7365 31.59 77.1665 31.23 77.4065C31.05 77.5265 31.26 78.0065 31.53 78.4265C33.72 82.3265 38.9999 87.8465 45.8099 90.9065C53.7299 94.4465 62.34 94.2365 70.11 91.2665C76.83 88.5965 82.68 83.2265 85.59 77.9165Z" fill="#0B1A23"/>
<path d="M72.81 64.0265C69.87 67.5965 68.19 68.8265 65.22 68.8265C64.23 68.8265 63.69 68.5865 63.96 68.1065L67.5 60.9965H68.85C70.35 60.9965 70.14 62.2565 69.75 63.9665C69.66 64.2065 69.87 64.2365 70.05 64.0265L73.41 58.1165C73.59 57.7265 73.14 57.6665 72.93 57.9365C71.25 60.2465 69.48 60.0665 68.7 60.0665H68.07L71.85 52.8365H73.38C75.3 52.9565 76.2 54.5765 75.66 58.5065H76.47L79.26 53.0165C79.5 52.5365 78.99 52.1165 78.48 52.1165H59.61C58.53 52.1165 58.47 52.9565 59.52 52.9565C60.39 52.9565 60.33 54.1565 59.55 54.7565L51.54 61.1165L53.16 68.6165C53.28 69.1865 53.64 69.4565 54.27 69.4565H69.9C70.56 69.4565 70.83 69.1865 71.01 68.9165L73.86 64.0565C74.19 63.3665 73.29 63.4265 72.81 64.0265ZM61.89 60.5765H60.51C60.42 60.5765 60.33 60.6665 60.33 60.7565C60.33 60.8465 60.42 60.9365 60.51 60.9365H61.89C62.37 60.9365 62.82 60.9965 62.7 61.2065L59.1 68.0465C58.65 68.8865 57.72 68.6765 57.57 68.0165L55.77 58.7765L62.07 53.9165C62.7 53.3765 63.9 52.5065 64.53 52.5365H65.88C66.72 52.5365 66.99 52.9265 66.84 53.4365L66.6 53.9165C66.45 54.1865 65.94 54.2165 65.55 54.2165H64.74C64.65 54.2165 64.56 54.3065 64.56 54.3965C64.56 54.4865 64.65 54.5765 64.74 54.5765H65.52C65.85 54.5765 66.3 54.5765 66.12 54.8465L63.21 60.3965C63.03 60.5465 62.43 60.5765 61.89 60.5765Z" fill="#542C81"/>
<path d="M48.9599 68.6465C48.5399 68.6465 48.2399 68.3465 48.1499 68.0465C47.9999 67.6265 48.0299 66.9365 48.1799 66.6365L55.4699 53.7365C55.5899 53.4965 55.8899 52.9865 56.2499 52.9865C56.9099 52.9865 57.1799 52.1165 56.0699 52.1165H50.2499C49.1699 52.1165 49.1699 52.9565 50.1899 52.9565C50.6099 52.9565 50.7899 53.3765 50.6699 53.6465L49.0499 56.5565C48.8399 56.8865 48.3899 56.9165 47.9399 56.9165H46.5599C46.4699 56.9165 46.3799 57.0065 46.3799 57.0965C46.3799 57.1865 46.4699 57.2765 46.5599 57.2765H47.9399C48.3299 57.2765 48.6299 57.3965 48.3899 57.8465L43.0199 67.6565C42.6299 68.1965 41.8799 68.3165 41.9099 67.2665L43.8299 52.8965C43.9199 52.4465 43.7999 52.1465 43.2899 52.1465H40.3799C40.0199 52.1465 39.8099 52.3265 39.6599 52.5365L38.6399 53.8265C38.4899 53.9765 38.2199 53.9765 37.8899 53.9765H35.4599C35.3699 53.9765 35.2799 54.0665 35.2799 54.1565C35.2799 54.2465 35.3699 54.3365 35.4599 54.3365H37.4399C37.7999 54.3365 38.2199 54.4265 38.0699 54.5765L35.2799 58.0565C35.1899 58.1465 34.9199 58.1765 34.7399 58.1765H33.9299C33.8399 58.1765 33.7499 58.2665 33.7499 58.3565C33.7499 58.4465 33.8399 58.5365 33.9299 58.5365H34.5899C34.7999 58.5365 34.7999 58.6265 34.7099 58.7165L32.0999 61.9865C31.9499 62.1065 31.7099 62.1365 31.4399 62.1365H29.1299C29.0399 62.1365 28.9499 62.2265 28.9499 62.3165C28.9499 62.4065 29.0399 62.4965 29.1299 62.4965H31.1099C31.4099 62.4965 31.6499 62.5565 31.4999 62.7665L27.8099 67.4165C27.0899 68.3165 23.7599 68.7365 23.0999 68.7365L35.6399 45.2765C35.7599 45.0065 36.2399 44.5865 36.6899 44.5865H39.3599C40.5899 44.5865 40.5599 43.7465 39.4799 43.7465H26.1599C25.0799 43.7465 25.0499 44.5865 26.2799 44.5865H28.7699C29.4899 44.5865 29.6999 45.0065 29.5199 45.3665L29.1599 46.0265C29.0399 46.2365 28.8599 46.3265 28.1999 46.3265H23.7899C23.6999 46.3265 23.6099 46.4165 23.6099 46.5065C23.6099 46.5965 23.6999 46.6865 23.7899 46.6865H28.1699C28.4099 46.6865 28.7699 46.7465 28.5599 47.1965L27.9299 48.3365C27.8099 48.5165 27.5399 48.6065 27.2399 48.6065H25.2599C25.1699 48.6065 25.0799 48.6965 25.0799 48.7865C25.0799 48.8765 25.1699 48.9665 25.2599 48.9665H27.2399C27.5399 48.9665 27.5399 49.1465 27.3599 49.4165L25.9499 52.0565C25.8299 52.2965 25.5899 52.3265 25.1399 52.3265H24.3299C24.2399 52.3265 24.1499 52.4165 24.1499 52.5065C24.1499 52.5965 24.2399 52.6865 24.3299 52.6865H25.1399C25.4399 52.6865 25.5299 52.8665 25.3799 53.1365L24.2399 55.2965C24.0599 55.5965 23.8199 55.7465 23.0699 55.7465H18.6899C18.5999 55.7465 18.5099 55.8365 18.5099 55.9265C18.5099 56.0165 18.5999 56.1065 18.6899 56.1065H23.0699C23.5799 56.1065 23.7599 56.3465 23.5499 56.7065L21.2999 60.9665C21.1499 61.1465 20.7899 61.1765 20.1899 61.1765H15.7799C15.6899 61.1765 15.5999 61.2665 15.5999 61.3565C15.5999 61.4465 15.6899 61.5365 15.7799 61.5365H20.1299C20.6699 61.5365 20.9999 61.5665 20.8199 61.8365L19.5299 64.2965C19.2899 64.6865 18.5999 64.6865 18.3599 64.6865H16.9799C16.8899 64.6865 16.7999 64.7765 16.7999 64.8665C16.7999 64.9565 16.8899 65.0465 16.9799 65.0465H18.3599C18.8399 65.0465 19.1099 65.1365 18.9899 65.4065L17.2499 68.6765C17.0999 68.9765 16.4099 68.9765 15.8999 68.9765H9.08991C8.99991 68.9765 8.90991 69.0665 8.90991 69.1565C8.90991 69.2465 8.99991 69.3365 9.08991 69.3365H15.8699C16.3199 69.3365 16.8599 69.3965 16.6799 69.7565L15.5699 71.8565C15.4499 72.0365 15.0899 72.0365 14.5499 72.0365H13.1699C13.0799 72.0365 12.9899 72.1265 12.9899 72.2165C12.9899 72.3065 13.0799 72.3965 13.1699 72.3965H14.5499C14.8799 72.3965 15.2999 72.4265 15.1499 72.6965L14.4599 74.0165C14.2199 74.3465 14.0099 74.6465 13.4999 74.6465H9.98991C8.75991 74.6465 8.78991 75.4865 9.86991 75.4865H29.8199C30.4199 75.4865 30.4199 75.3965 30.7199 74.9765L33.6599 69.8165H48.7799C49.8899 69.5165 49.5899 68.6765 48.9599 68.6465ZM37.0799 67.1165C36.9299 67.9865 36.0899 68.5265 35.0099 68.7965L33.8999 69.0665L34.8299 67.4165C35.0699 66.9665 34.5299 66.6965 33.9599 67.3565C30.0899 71.8565 28.8899 74.0165 22.9199 74.0465H21.2999C20.8199 74.0465 20.3099 73.8665 20.6099 73.3865L22.7099 69.4565H30.7199C31.7999 69.4565 31.5299 68.6165 30.8999 68.5865C30.4799 68.5865 29.9999 68.3165 29.6999 67.8065C29.6099 67.6565 29.3999 67.0865 29.7299 66.6665L32.7899 62.5865H37.8299L37.0799 67.1165ZM38.2499 61.9865H33.2999L39.5999 53.6765L38.2499 61.9865Z" fill="#542C81"/>
<path d="M113.88 64.5365C113.79 64.1165 113.64 64.3865 113.37 64.8965C113.28 65.0465 113.01 65.0465 112.77 65.0465H111.96C111.87 65.0465 111.78 65.1365 111.78 65.2265C111.78 65.3165 111.87 65.4065 111.96 65.4065H112.77C113.07 65.4065 113.07 65.6165 112.95 65.9165C112.38 67.0865 111.84 67.8665 111.09 68.8265C110.97 68.9765 110.67 69.0965 110.43 69.0965H109.62C109.53 69.0965 109.44 69.1865 109.44 69.2765C109.44 69.3665 109.53 69.4565 109.62 69.4565H110.43C110.82 69.4565 110.43 69.6965 110.37 69.7865C108.99 71.6465 108 72.4865 107.01 73.2965C106.89 73.3865 106.29 73.3565 105.93 73.3565H105.12C105.03 73.3565 104.94 73.4465 104.94 73.5365C104.94 73.6265 105.03 73.7165 105.12 73.7165H105.9C106.5 73.7165 106.05 74.0765 105.96 74.1365C103.77 75.9365 100.56 76.5365 99.0899 76.3565C94.2599 75.7565 93.2999 72.0965 92.9399 70.6565C92.8499 70.3565 92.6399 69.7265 92.5499 69.3365C92.3999 68.5565 94.5599 68.3765 95.1899 68.7365C96.1199 69.3665 98.1899 69.9665 99.8999 69.9665C101.43 69.9665 104.61 68.8565 105.51 66.2165C106.47 63.4865 104.1 60.5165 103.05 59.4365C101.73 58.1165 100.47 56.0165 101.01 54.4565C101.4 53.3165 102.06 52.7765 103.5 52.7765C105.33 52.7765 106.68 53.9465 106.68 55.6565C106.68 55.8065 106.59 55.9865 106.47 55.9865H105.81C105.72 55.9865 105.63 56.0765 105.63 56.1665C105.63 56.2565 105.72 56.3465 105.81 56.3465H106.44C106.62 56.3465 106.71 56.4665 106.68 56.7065C106.56 57.2765 106.53 57.6665 106.38 58.2065C106.32 58.5365 106.8 58.7765 106.95 58.5365L109.86 53.3765C110.07 52.9865 109.59 52.8665 109.26 52.9865C108.45 53.2565 107.19 53.4665 106.71 53.1365C105.63 52.3565 104.64 51.8765 103.14 51.8765C100.56 51.8765 98.7599 52.5065 97.6199 54.6365C97.5299 54.8165 97.2599 54.7865 97.0499 54.7865H96.5399C96.4499 54.7865 96.3599 54.8765 96.3599 54.9665C96.3599 55.0565 96.4499 55.1465 96.5399 55.1465H96.9599C97.1399 55.1465 97.2599 55.2065 97.1699 55.4165C97.0799 55.5965 97.0199 55.8065 96.9599 56.0165C96.6599 56.9465 96.7499 58.2065 97.2299 59.3465C97.2599 59.4365 97.1699 59.4665 96.9899 59.4665H96.1799C96.0899 59.4665 95.9999 59.5565 95.9999 59.6465C95.9999 59.7365 96.0899 59.8265 96.1799 59.8265H96.9899C97.3499 59.8265 97.4399 59.8565 97.5899 60.0665C98.0099 60.6365 98.4299 61.0565 98.9099 61.7165C99.0899 61.9265 98.3699 61.9865 97.9799 61.9865H94.8899C94.7999 61.9865 94.7099 62.0765 94.7099 62.1665C94.7099 62.2565 94.7999 62.3465 94.8899 62.3465H98.0399C98.5499 62.3465 99.4199 62.3465 99.5099 62.4365C100.29 63.3365 101.19 64.6865 101.34 65.7965C101.37 66.1265 101.25 66.2765 100.86 66.2765H100.44C100.35 66.2765 100.26 66.3665 100.26 66.4565C100.26 66.5465 100.35 66.6365 100.44 66.6365H100.83C101.16 66.6365 101.34 66.6965 101.25 66.9365C100.83 68.2265 100.23 69.1865 97.7399 69.1865C95.0999 69.1865 94.5899 66.6065 95.3399 63.9365C95.4899 63.3965 95.3399 63.1565 95.0999 63.5765L93.2699 66.4565C93.2099 66.5165 93.0599 66.6965 92.7599 66.6965H92.4899C92.3999 66.6965 92.3099 66.7865 92.3099 66.8765C92.3099 66.9665 92.3999 67.0565 92.4899 67.0565C92.7299 67.0565 92.8199 67.1765 92.7299 67.2965L92.0399 68.3165C90.9599 65.7965 89.0999 62.7065 88.1099 61.5665L88.1399 61.5065C90.5699 61.3565 94.1399 59.0765 94.7399 57.0365C95.7299 53.5265 92.3099 52.2065 90.4499 52.2065H82.2299C81.1499 52.2065 81.0599 53.0465 82.1099 53.0465C82.6799 53.0465 83.1599 53.5565 82.9199 54.0365L81.0899 57.3065C80.9399 57.5765 80.3699 57.5765 79.6499 57.5765H78.8399C78.7499 57.5765 78.6599 57.6665 78.6599 57.7565C78.6599 57.8465 78.7499 57.9365 78.8399 57.9365H79.6199C80.1599 57.9365 80.6999 57.9665 80.5499 58.3565L78.3899 62.2265C78.2699 62.4065 77.9999 62.4365 77.2799 62.4365H76.4699C76.3799 62.4365 76.2899 62.5265 76.2899 62.6165C76.2899 62.7065 76.3799 62.7965 76.4699 62.7965H77.2499C77.8499 62.7965 78.0599 62.8865 77.8799 63.1865L74.9999 68.3765C74.6399 68.7665 74.2499 68.8265 73.5599 68.8265C72.5399 68.8265 72.5399 69.6665 73.6199 69.6665H80.6399C81.7199 69.6665 81.4799 68.7965 80.8199 68.7965C80.4299 68.7965 80.0399 68.0765 80.2799 67.6865L83.8499 60.8765H84.2099C85.7999 60.8765 86.1899 63.5165 86.4899 66.3365C86.5199 66.5465 86.1299 66.5465 85.3499 66.5465H83.3399C83.2499 66.5465 83.1599 66.6365 83.1599 66.7265C83.1599 66.8165 83.2499 66.9065 83.3399 66.9065H85.3199C85.8599 66.9065 86.5499 66.9065 86.5799 67.0865C86.7299 68.3165 86.8199 69.4565 87.0599 70.4465C87.1499 70.7765 86.5799 70.7165 85.9799 70.7165H83.3999C83.3099 70.7165 83.2199 70.8065 83.2199 70.8965C83.2199 70.9865 83.3099 71.0765 83.3999 71.0765H85.9499C86.7599 71.0765 87.1499 71.0765 87.1799 71.2265C88.2599 75.2465 92.9699 78.3965 97.5299 78.2165C101.43 78.0665 104.73 75.9365 106.41 74.5865C108.66 72.7865 111.96 69.0065 113.31 66.2465C113.55 65.6465 113.97 64.9865 113.88 64.5365ZM87.5399 59.1965C86.9699 59.6465 86.1299 60.1565 85.9799 60.0065C85.7399 59.7665 85.0199 59.2565 84.6299 59.0765L87.8699 53.1365C88.0199 52.9265 88.1699 52.8065 88.5299 52.8065C89.7899 52.8065 90.2099 54.1865 89.6099 55.8965C89.1899 57.0965 88.5299 58.4165 87.5399 59.1965Z" fill="#542C81"/>
<path d="M48 46.8365C47.34 47.7065 46.47 47.8865 45.48 47.8865H45.21L46.95 44.4665C47.04 44.3165 47.22 44.1965 47.46 44.1965C47.67 44.1965 47.64 43.7465 47.37 43.7465H44.64C44.4 43.7465 44.31 44.1965 44.55 44.1965C44.79 44.1965 44.82 44.4665 44.73 44.6765L43.2 47.7065C43.08 47.8865 42.93 47.9165 42.72 47.9765C42.48 48.0365 42.33 48.4565 42.6 48.4565H46.95C47.28 48.4565 47.37 48.3365 47.46 48.2165L48.36 46.8665C48.36 46.7165 48.12 46.6865 48 46.8365Z" fill="#542C81"/>
<path d="M91.2601 45.0964L91.65 44.3764C91.83 44.0764 91.5301 43.7164 91.1101 43.7164H86.04C85.68 43.7164 85.77 44.1064 85.92 44.1064C86.25 44.1064 86.3401 44.4964 86.1601 44.8564L84.63 47.6764C84.39 47.9464 84.2401 48.0664 83.9101 48.0664C83.6401 48.0664 83.5501 48.4564 83.9101 48.4564H89.04C89.25 48.4564 89.34 48.3664 89.43 48.2764L90.15 47.3464C90.33 47.1064 89.94 47.1064 89.85 47.2264C88.95 48.1264 88.02 48.0964 87.3 48.0964H86.7L87.42 46.5364H87.57C88.02 46.5364 88.53 46.5364 88.68 46.8964C88.71 46.9864 88.95 47.0464 89.04 46.8964L89.64 45.6964C89.73 45.5164 89.46 45.4864 89.4 45.6064C89.16 46.0264 88.14 45.9064 87.84 45.9064H87.69L88.59 44.1664H89.55C90.18 44.1664 90.66 44.6164 90.84 45.0664C90.9 45.1564 91.2001 45.2464 91.2601 45.0964Z" fill="#542C81"/>
<path d="M110.28 43.8965C110.16 43.9565 109.83 44.0165 109.68 43.8965C109.32 43.5965 108.66 43.3865 108.3 43.3865C107.28 43.3865 106.53 43.5965 106.08 44.5565C105.69 45.3965 106.08 46.0565 107.01 46.5065C107.4 46.6865 107.94 46.9265 107.73 47.4065C107.58 47.7665 107.16 47.7965 106.8 47.7965C106.32 47.7965 105.6 47.4365 105.48 46.7465C105.45 46.5065 105.18 46.5665 105.09 46.6865L104.46 47.9165C104.37 48.0965 104.61 48.2765 104.73 48.1565C104.94 47.9165 105.42 47.8865 105.63 48.0365C105.93 48.2465 106.71 48.6065 107.19 48.6065C108.21 48.6065 108.9 48.3365 109.5 47.4665C110.04 46.6265 109.71 45.8465 108.75 45.3965C108.24 45.1565 107.82 44.7365 108.03 44.2865C108.18 43.9865 108.63 44.0465 108.87 44.0765C109.29 44.1365 109.83 44.5565 109.89 44.9165C109.92 45.0665 110.1 45.0965 110.19 44.9465L110.52 44.1665C110.58 43.9565 110.34 43.8365 110.28 43.8965Z" fill="#542C81"/>
<path d="M96.6599 46.8365C95.9999 47.7065 95.1299 47.8865 94.1399 47.8865H93.8699L95.6099 44.4665C95.6999 44.3165 95.8799 44.1965 96.1199 44.1965C96.3299 44.1965 96.2999 43.7465 96.0299 43.7465H93.2999C93.0599 43.7465 92.9699 44.1965 93.2099 44.1965C93.4499 44.1965 93.4799 44.4665 93.3899 44.6765L91.8599 47.7065C91.7399 47.8865 91.5899 47.9165 91.3799 47.9765C91.1399 48.0365 90.9899 48.4565 91.2599 48.4565H95.6099C95.9399 48.4565 96.0299 48.3365 96.1199 48.2165L97.0199 46.8665C97.0199 46.7165 96.7799 46.6865 96.6599 46.8365Z" fill="#542C81"/>
<path d="M103.2 44.1665C103.83 44.1665 104.31 44.6165 104.49 45.0665C104.52 45.1865 104.85 45.2765 104.94 45.1265L105.33 44.4065C105.51 44.1065 105.21 43.7465 104.79 43.7465H99.72C99.36 43.7465 99.45 44.1365 99.6 44.1365C99.93 44.1365 100.02 44.5265 99.84 44.8865L98.31 47.7065C98.07 47.9765 97.92 48.0965 97.59 48.0965C97.32 48.0965 97.23 48.4865 97.59 48.4865H102.72C102.93 48.4865 103.02 48.3965 103.11 48.3065L103.83 47.3765C104.01 47.1365 103.62 47.1365 103.53 47.2565C102.63 48.1565 101.7 48.1265 100.98 48.1265H100.38L101.1 46.5665H101.25C101.7 46.5665 102.21 46.5665 102.36 46.8965C102.39 46.9865 102.63 47.0465 102.72 46.8965L103.32 45.6965C103.41 45.5165 103.14 45.4865 103.08 45.6065C102.84 46.0265 101.82 45.9065 101.52 45.9065H101.37L102.27 44.1665H103.23H103.2Z" fill="#542C81"/>
<path d="M78.2701 43.7465H76.4701C76.1101 43.7465 76.2001 44.1365 76.3501 44.1365C76.7401 44.1365 77.1001 44.5865 76.8901 45.0065L76.1401 46.3565L74.4901 43.9265C74.3701 43.7765 74.1001 43.6865 73.8901 43.6865H72.1201C71.7601 43.6865 71.8201 44.0765 72.0001 44.0765C72.3901 44.0765 72.2701 44.3765 72.1801 44.5565L70.7701 47.2865C70.6801 47.4965 70.2901 47.5265 70.1701 47.2565L69.0901 43.6865C69.0301 43.5365 68.4001 43.5365 68.2201 43.6865L65.4601 45.9665H64.0501C63.7501 45.9665 63.6601 46.0865 63.6601 46.2365C63.6601 46.3865 63.7801 46.5365 64.0801 46.5365H64.8301L64.0801 47.1665C63.6601 47.4665 63.2401 47.9165 62.9701 47.9165H62.7901C62.5201 47.9165 62.3701 47.9465 62.3701 48.1865C62.3701 48.3965 62.4901 48.4865 62.7301 48.4865H64.9501C65.3701 48.4865 65.2801 47.9465 65.0701 47.9465C64.8301 47.9465 64.4401 47.6465 64.8001 47.2265L65.4901 46.5665H66.8101C67.6201 46.5665 68.1301 47.4965 67.7101 47.7665L67.3501 47.9765C67.1701 48.0665 67.1101 48.4865 67.3501 48.4865H71.7001C72.0301 48.4865 71.9701 48.0665 71.8201 48.0665C71.3701 48.0665 71.5801 47.4065 71.6701 47.2565L72.8101 45.0965L74.4001 48.1865C74.5201 48.3965 74.6101 48.4865 74.7901 48.4865H75.4201C75.6301 48.4865 75.6901 48.3665 75.7801 48.2165L77.6101 44.9465C77.9101 44.3465 78.1501 44.1665 78.5101 44.1665C78.5401 44.1665 78.6601 43.7465 78.2701 43.7465ZM66.1501 45.9965L67.8301 44.6165V45.9965H66.1501Z" fill="#542C81"/>
<path d="M52.6199 43.5664C51.0899 43.5664 49.5299 44.3164 49.2299 45.9364C48.9599 47.3164 49.9199 48.7864 51.6299 48.7864C53.2499 48.7864 54.7199 47.7364 55.0499 46.1764C55.3199 44.6164 54.1499 43.5664 52.6199 43.5664ZM53.0399 46.5064C52.5599 47.4664 51.7499 48.0364 51.2399 47.7664C50.7299 47.4964 50.6999 46.5364 51.1799 45.5464C51.6599 44.5864 52.4699 44.0164 52.9799 44.2864C53.5199 44.5564 53.5499 45.5164 53.0399 46.5064Z" fill="#542C81"/>
<path d="M61.08 43.8965C60.96 43.9565 60.63 44.0165 60.48 43.8965C60.12 43.5965 59.46 43.3865 59.1 43.3865C58.08 43.3865 57.33 43.5965 56.88 44.5565C56.49 45.3965 56.88 46.0565 57.81 46.5065C58.2 46.6865 58.74 46.9265 58.53 47.4065C58.38 47.7665 57.96 47.7965 57.6 47.7965C57.12 47.7965 56.4 47.4365 56.28 46.7465C56.25 46.5065 55.98 46.5665 55.89 46.6865L55.26 47.9165C55.17 48.0965 55.41 48.2765 55.53 48.1565C55.74 47.9165 56.19 47.8865 56.43 48.0365C56.73 48.2465 57.51 48.6065 57.99 48.6065C59.01 48.6065 59.7 48.3365 60.3 47.4665C60.84 46.6265 60.51 45.8465 59.55 45.3965C59.04 45.1565 58.62 44.7365 58.83 44.2865C58.98 43.9865 59.43 44.0465 59.67 44.0765C60.09 44.1365 60.63 44.5565 60.69 44.9165C60.72 45.0665 60.9 45.0965 60.99 44.9465L61.32 44.1665C61.41 43.9565 61.17 43.8365 61.08 43.8965Z" fill="#542C81"/>
<path d="M83.43 45.8764H81.48C81.12 45.8764 81.21 46.2664 81.36 46.2664C81.51 46.2664 81.66 46.3564 81.66 46.5964C81.66 47.4064 81.33 47.6764 80.67 47.6764C79.92 47.6764 79.68 46.7464 80.16 45.6664C80.49 44.9464 81.33 44.3164 82.35 44.3164C82.98 44.3164 83.46 44.4664 83.55 45.0364C83.58 45.1864 83.79 45.1864 83.85 45.0364L84.33 44.1964C84.39 44.1064 84.3 43.9864 84.15 43.9864C84.03 43.9864 83.76 44.1364 83.58 44.0164C83.19 43.7164 82.35 43.4464 81.69 43.4464C80.64 43.4464 79.17 43.6864 78.18 45.3964C77.28 46.9564 78.6 48.5764 79.8 48.5764C80.49 48.5764 81.24 48.0664 81.69 47.8864L82.2 48.2164C82.29 48.3064 82.44 48.4264 82.59 48.4264H82.77C82.95 48.4264 83.01 48.1864 83.07 48.0364L83.85 46.1764C83.91 46.0264 83.85 45.8764 83.43 45.8764Z" fill="#542C81"/>
</svg>
