<svg width="32" height="33" viewBox="0 0 32 33" fill="none" xmlns="http://www.w3.org/2000/svg">
<path d="M29.6338 0.838114H2.3662C2.05968 0.833883 1.75533 0.88971 1.47053 1.00241C1.18572 1.1151 0.926041 1.28246 0.706314 1.49492C0.486586 1.70739 0.311117 1.96079 0.189927 2.24067C0.0687362 2.52055 0.00419862 2.82141 0 3.12608V30.5497C0.00419862 30.8544 0.0687362 31.1552 0.189927 31.4351C0.311117 31.715 0.486586 31.9684 0.706314 32.1809C0.926041 32.3933 1.18572 32.5607 1.47053 32.6734C1.75533 32.7861 2.05968 32.8419 2.3662 32.8377H29.6338C29.9403 32.8419 30.2447 32.7861 30.5295 32.6734C30.8143 32.5607 31.074 32.3933 31.2937 32.1809C31.5134 31.9684 31.6889 31.715 31.8101 31.4351C31.9313 31.1552 31.9958 30.8544 32 30.5497V3.12608C31.9958 2.82141 31.9313 2.52055 31.8101 2.24067C31.6889 1.96079 31.5134 1.70739 31.2937 1.49492C31.074 1.28246 30.8143 1.1151 30.5295 1.00241C30.2447 0.88971 29.9403 0.833883 29.6338 0.838114ZM9.70624 27.6217H4.87726V13.2219H9.70624V27.6217ZM7.29175 11.206C6.62577 11.206 5.98707 10.943 5.51616 10.4749C5.04524 10.0068 4.78068 9.37198 4.78068 8.71C4.78068 8.04803 5.04524 7.41317 5.51616 6.94509C5.98707 6.47701 6.62577 6.21404 7.29175 6.21404C7.64539 6.17417 8.0035 6.20901 8.34266 6.31625C8.68181 6.4235 8.99435 6.60074 9.25981 6.83637C9.52527 7.072 9.73767 7.36071 9.88309 7.68359C10.0285 8.00647 10.1037 8.35624 10.1037 8.71C10.1037 9.06377 10.0285 9.41354 9.88309 9.73642C9.73767 10.0593 9.52527 10.348 9.25981 10.5836C8.99435 10.8193 8.68181 10.9965 8.34266 11.1038C8.0035 11.211 7.64539 11.2458 7.29175 11.206ZM27.1227 27.6217H22.2938V19.8938C22.2938 17.9579 21.6016 16.6939 19.8471 16.6939C19.3041 16.6978 18.7754 16.8671 18.3321 17.179C17.8889 17.4908 17.5525 17.9302 17.3682 18.4379C17.2422 18.8139 17.1877 19.21 17.2072 19.6059V27.6057H12.3783C12.3783 27.6057 12.3783 14.5179 12.3783 13.2059H17.2072V15.2379C17.6459 14.4813 18.284 13.858 19.0526 13.4351C19.8213 13.0122 20.6915 12.8057 21.5694 12.8379C24.7887 12.8379 27.1227 14.9019 27.1227 19.3339V27.6217Z" fill="#EDEDED"/>
</svg>
