<svg width="62" height="65" viewBox="0 0 62 65" fill="none" xmlns="http://www.w3.org/2000/svg">
<path d="M51.4402 57.0386C37.8918 57.7792 24.3298 57.7791 10.7705 57.6157C9.20903 57.5969 7.46669 57.9554 5.95911 57.0386" stroke="#EDEDED" stroke-width="2" stroke-linecap="round" stroke-linejoin="round"/>
<path d="M6.39631 31.3825C10.1275 25.2016 14.6555 19.562 18.6467 13.5574C19.8783 11.7044 21.0249 9.81574 21.7011 7.68289C22.85 4.05937 20.6543 2.27149 17.7635 2.07566C13.3276 1.77517 8.9441 2.39613 4.45007 3.47025C5.50097 4.90698 5.21341 6.48881 5.23342 7.9017C5.34647 15.8836 5.36514 23.8637 6.1638 31.8188C6.1991 32.1704 6.03188 32.5421 5.959 32.9045" stroke="#EDEDED" stroke-width="3" stroke-linecap="round" stroke-linejoin="round"/>
<path d="M3.77246 60.7349C9.50944 61.4451 15.2625 61.8337 21.0428 62.1145C29.133 62.5075 37.2203 62.9173 45.3177 63.1265" stroke="#EDEDED" stroke-width="2" stroke-linecap="round" stroke-linejoin="round"/>
<path d="M5.52173 33.1218C3.72238 36.018 2.56079 39.2092 1.8819 42.4869C1.37342 44.9419 1.71295 47.5983 3.80296 49.3935C5.97603 51.2601 8.56645 50.7561 10.9791 49.8398C14.9901 48.3166 18.0904 45.4554 21.2905 42.7178C23.6627 40.6885 25.0138 37.9862 26.7718 35.5421C27.2232 34.9145 27.0809 34.3682 27.169 33.7741" stroke="#EDEDED" stroke-width="3" stroke-linecap="round" stroke-linejoin="round"/>
<path d="M41.1632 44.428C41.2825 45.5909 40.4933 46.1994 39.6196 46.5722C38.6681 46.9781 38.1357 47.4943 38.3547 48.5696C35.8373 48.3802 33.6365 49.5135 31.3309 50.1092C24.8767 51.777 18.3951 53.3069 11.878 54.7158C9.88743 55.1462 7.66561 55.1716 5.95911 56.6037" stroke="#EDEDED" stroke-width="2" stroke-linecap="round" stroke-linejoin="round"/>
<path d="M43.5683 45.9499C43.3784 42.9657 44.6959 40.2663 45.4062 37.4928C47.3346 29.9625 49.6338 22.5233 51.9067 15.0845C52.7624 12.2839 53.5807 9.3998 55.8447 6.94482C57.2363 8.63905 57.2513 10.5406 57.2867 12.2503C57.3875 17.1164 56.9885 21.9757 56.4545 26.815C56.2535 28.6367 55.8861 30.4403 55.5946 32.2522" stroke="#EDEDED" stroke-width="2" stroke-linecap="round" stroke-linejoin="round"/>
<path d="M55.5946 32.9044C55.0319 35.7943 54.4692 38.6842 53.8555 41.8362C56.5918 41.2536 58.4014 39.6861 59.9218 37.8671C60.7261 36.9049 60.2357 35.6817 59.3023 34.8721C57.1042 32.9655 54.5468 31.6572 51.8864 30.4924C49.2022 29.3172 46.3912 28.5719 43.5618 27.9323C39.4277 26.9978 36.5958 29.7251 37.2889 34.1995C37.7788 37.3625 38.5615 40.531 40.2885 43.3408" stroke="#EDEDED" stroke-width="3" stroke-linecap="round" stroke-linejoin="round"/>
<path d="M53.8454 42.0364C52.675 44.1693 52.5974 46.7214 51.224 48.7782C50.6984 49.5653 50.3023 50.4635 49.669 51.1482C48.478 52.4361 46.644 52.374 45.3134 51.1728C44.456 50.3988 43.848 49.2527 42.4751 49.2114" stroke="#EDEDED" stroke-width="3" stroke-linecap="round" stroke-linejoin="round"/>
<path d="M6.17773 33.3394C6.83371 38.4126 7.48969 43.4858 8.14566 48.559" stroke="#EDEDED" stroke-width="2" stroke-linecap="round" stroke-linejoin="round"/>
<path d="M38.5392 47.037C37.8204 46.2917 37.8371 45.3645 37.8824 44.4279C37.9447 43.1369 37.7864 41.9124 36.8 40.9476C34.6539 41.2596 34.0104 43.7468 31.9291 44.2221C29.6573 41.9857 31.9117 38.7496 30.3105 36.345C29.1346 36.4713 28.7337 37.3027 28.2507 38.1159C26.6045 40.8876 24.917 43.6353 23.2288 46.3821C22.6799 47.2753 22.2058 48.2622 21.0465 48.559" stroke="#EDEDED" stroke-width="4" stroke-linecap="round" stroke-linejoin="round"/>
<path d="M52.9707 42.6885C49.6179 43.993 46.2651 45.2976 42.9124 46.6021" stroke="#EDEDED" stroke-width="2" stroke-linecap="round" stroke-linejoin="round"/>
<path d="M22.7958 41.8188C22.7958 42.0363 22.8596 42.2782 22.7861 42.4674C21.846 44.888 20.7453 47.2556 20.3905 49.8635" stroke="#EDEDED" stroke-width="3" stroke-linecap="round" stroke-linejoin="round"/>
<path d="M41.1631 46.1675C43.1907 47.7635 42.0214 49.741 41.8191 51.6031" stroke="#EDEDED" stroke-width="6" stroke-linecap="round" stroke-linejoin="round"/>
</svg>
