<svg width="32" height="33" viewBox="0 0 32 33" fill="none" xmlns="http://www.w3.org/2000/svg">
<path d="M23.47 20.0539C23.1485 19.8941 21.0587 18.9353 20.7372 18.7755C20.4157 18.6157 20.0942 18.6157 19.7726 18.9353C19.4511 19.2549 18.8081 20.2137 18.4866 20.5333C18.3259 20.8529 18.0044 20.8529 17.6829 20.6931C16.5576 20.2137 15.4323 19.5745 14.4678 18.7755C13.664 17.9765 12.8603 17.0177 12.2172 16.0589C12.0565 15.7393 12.2172 15.4197 12.378 15.2599C12.5388 15.1001 12.6995 14.7805 13.021 14.6207C13.1818 14.4609 13.3425 14.1413 13.3425 13.9815C13.5033 13.8217 13.5033 13.5021 13.3425 13.3423C13.1818 13.1825 12.378 11.2649 12.0565 10.4659C11.8957 9.34725 11.5742 9.34725 11.2527 9.34725H10.449C10.1275 9.34725 9.64519 9.66685 9.48444 9.82665C8.51992 10.7855 8.03766 11.9041 8.03766 13.1825C8.19842 14.6207 8.68067 16.0589 9.64519 17.3373C11.4135 19.8941 13.664 21.9715 16.3968 23.2499C17.2006 23.5695 17.8436 23.8891 18.6474 24.0489C19.4511 24.3685 20.2549 24.3685 21.2194 24.2087C22.3447 24.0489 23.3092 23.2499 23.9522 22.2911C24.2737 21.6519 24.2737 21.0127 24.113 20.3735L23.47 20.0539ZM27.4888 5.51205C21.2194 -0.720162 11.092 -0.720162 4.8226 5.51205C-0.321507 10.6257 -1.28603 18.4559 2.25055 24.6881L0 32.8379L8.51992 30.6007C10.9312 31.8791 13.5033 32.5183 16.0753 32.5183C24.9168 32.5183 31.9899 25.4871 31.9899 16.6981C32.1506 12.5433 30.3824 8.54825 27.4888 5.51205ZM23.1485 27.8841C21.0587 29.1625 18.6474 29.9615 16.0753 29.9615C13.664 29.9615 11.4135 29.3223 9.32369 28.2037L8.84143 27.8841L3.85808 29.1625L5.1441 24.3685L4.8226 23.8891C0.964519 17.4971 2.89356 9.50705 9.16293 5.51205C15.4323 1.51704 23.47 3.59445 27.3281 9.66685C31.1861 15.8991 29.4178 24.0489 23.1485 27.8841Z" fill="#EDEDED"/>
</svg>
